/* XPM */
static char * ___ = {
"64 64 168 2",
"  	c None",
". 	c #2B2A29",
"+ 	c #7B7B79",
"@ 	c #F7F5D4",
"# 	c #F5EF97",
"$ 	c #F4EE95",
"% 	c #F6F2A9",
"& 	c #FBFBF8",
"* 	c #2C2B2A",
"= 	c #A09F9C",
"- 	c #FCF7C7",
"; 	c #FBE308",
"> 	c #FDF6BE",
", 	c #969692",
"' 	c #FEF284",
") 	c #F5EF99",
"! 	c #C8C7BB",
"~ 	c #F6F097",
"{ 	c #FDF6B2",
"] 	c #FEFEFB",
"^ 	c #FDE724",
"/ 	c #FCE518",
"( 	c #FDEA46",
"_ 	c #FCFCFA",
": 	c #F8F4B9",
"< 	c #2F2E2D",
"[ 	c #FCFAE4",
"} 	c #FDF39A",
"| 	c #40403F",
"1 	c #F7F3B4",
"2 	c #FEE71D",
"3 	c #FDFBE8",
"4 	c #FECE0B",
"5 	c #DFDBD0",
"6 	c #F7F2AD",
"7 	c #FEFEFE",
"8 	c #FCFBE9",
"9 	c #FDFCF2",
"0 	c #FEFDF1",
"a 	c #FCF9D6",
"b 	c #FCF3A2",
"c 	c #FDEE63",
"d 	c #FCE727",
"e 	c #FCE40D",
"f 	c #FED426",
"g 	c #8A8987",
"h 	c #FEF8DE",
"i 	c #FAFAF6",
"j 	c #FEEA40",
"k 	c #F8F6D0",
"l 	c #FCFADA",
"m 	c #F9F5C0",
"n 	c #FCF9D5",
"o 	c #F8F5CE",
"p 	c #FDF1C0",
"q 	c #FAFAF7",
"r 	c #FEEE5A",
"s 	c #FED941",
"t 	c #6F6E6D",
"u 	c #FEF281",
"v 	c #FDEBA0",
"w 	c #FEF5A3",
"x 	c #FDE581",
"y 	c #FEDB49",
"z 	c #FDF6B9",
"A 	c #FEE067",
"B 	c #C8C5B9",
"C 	c #F8F4C6",
"D 	c #FEDE5B",
"E 	c #FED427",
"F 	c #2D2C2B",
"G 	c #FCFAE9",
"H 	c #FEEE60",
"I 	c #F8B31E",
"J 	c #F5EF9A",
"K 	c #FDF396",
"L 	c #FDF4CD",
"M 	c #FEE57F",
"N 	c #F7AA05",
"O 	c #FEEC9F",
"P 	c #F8B31F",
"Q 	c #FDE82C",
"R 	c #FEECA8",
"S 	c #F9BB37",
"T 	c #FDE516",
"U 	c #FEFBEB",
"V 	c #F9BF42",
"W 	c #31302F",
"X 	c #FED428",
"Y 	c #F8AF13",
"Z 	c #4F4E4D",
"` 	c #F5F4EE",
" .	c #FEFAF0",
"..	c #FEF6BB",
"+.	c #FCE2A9",
"@.	c #FBD784",
"#.	c #FCD889",
"$.	c #5F5E5E",
"%.	c #FCF9D9",
"&.	c #FEDA45",
"*.	c #F9B72C",
"=.	c #686867",
"-.	c #FEEF6C",
";.	c #FAC044",
">.	c #FEDB4D",
",.	c #FEE063",
"'.	c #FCE0A3",
").	c #888786",
"!.	c #FEDC52",
"~.	c #FEF6E5",
"{.	c #E5E2D3",
"].	c #FBCD6A",
"^.	c #FDF2D8",
"/.	c #AFADA6",
"(.	c #FEE67E",
"_.	c #FEDE5C",
":.	c #F8AF14",
"<.	c #F9F3DB",
"[.	c #E9E5D5",
"}.	c #FED322",
"|.	c #FEF4D9",
"1.	c #F8B628",
"2.	c #B2B3B3",
"3.	c #AFB0B0",
"4.	c #929393",
"5.	c #6E6E6D",
"6.	c #41403F",
"7.	c #363534",
"8.	c #373635",
"9.	c #353433",
"0.	c #302F2E",
"a.	c #393837",
"b.	c #5B5B5A",
"c.	c #838483",
"d.	c #A1A2A2",
"e.	c #979797",
"f.	c #C3C4C4",
"g.	c #C5C6C6",
"h.	c #BCBCBC",
"i.	c #555554",
"j.	c #323130",
"k.	c #2B2B2A",
"l.	c #3B3A39",
"m.	c #9B9B9B",
"n.	c #7E7E7E",
"o.	c #9FA0A0",
"p.	c #535252",
"q.	c #333231",
"r.	c #5C5B5A",
"s.	c #A9AAAA",
"t.	c #3C3B3A",
"u.	c #4F4F4E",
"v.	c #9D9E9D",
"w.	c #656564",
"x.	c #343332",
"y.	c #515150",
"z.	c #BABBBB",
"A.	c #929392",
"B.	c #706F6F",
"C.	c #626161",
"D.	c #6D6C6C",
"E.	c #909090",
"F.	c #B4B5B5",
"G.	c #363635",
"H.	c #BBBCBC",
"I.	c #383737",
"J.	c #555453",
"K.	c #3F3E3D",
"                                                    . + @ # $ $ $ $ % & *                                                       ",
"                                                = $ $ $ $ $ $ $ $ $ $ - ; ; > .                                                 ",
"                                            , $ $ $ $ $ $ $ $ $ $ $ $ ; ; ; ; ; ' .                                             ",
"                                        . ) $ $ $ $ $ $ $ $ $ $ $ $ $ ; ; ; ; ; ; ; !                                           ",
"                                      . $ $ $ $ $ $ $ $ $ $ $ $ $ $ ~ ; ; ; ; ; ; ; ; {                                         ",
"                                    . $ $ $ $ $ $ $ $ $ $ $ $ $ $ $ ] ; ; ; ; ; ; ; ; ; ^                                       ",
"                                  . $ $ $ $ $ $ $ $ $ $ $ $ $ $ $ $ / ; ; ; ; ; ; ; ; ; ; (                                     ",
"                                . $ $ $ $ $ $ $ $ $ $ $ $ $ $ $ $ $ ; ; ; ; ; ; ; ; ; ; ; ; _                                   ",
"                                : $ $ $ $ $ $ $ $ $ $ $ $ $ $ $ $ $ ; ; ; ; ; ; ; ; ; ; ; ; ; .                                 ",
"                              < $ $ $ $ $ $ $ $ $ $ $ $ $ $ $ $ $ [ ; ; ; ; ; ; ; ; ; ; ; ; ; ;                                 ",
"                              $ $ $ $ $ $ $ $ $ $ $ $ $ $ $ $ $ $ } ; ; ; ; ; ; ; ; ; ; ; ; ; ; |                               ",
"                            . $ $ $ $ $ $ $ $ $ $ $ $ $ $ $ $ $ $ ; ; ; ; ; ; ; ; ; ; ; ; ; ; ; ;                               ",
"                            1 $ $ $ $ $ $ $ $ $ $ $ $ $ $ $ $ $ $ ; ; ; ; ; ; ; ; ; ; ; ; ; ; ; 2 .                             ",
"                            $ $ $ $ $ $ $ $ $ $ $ $ $ $ $ $ $ $ 3 ; ; ; ; ; ; ; ; ; ; ; ; ; ; ; 4 5                             ",
"                          . $ $ $ $ $ 6 7 8 9 ] 0 a b c d e ; ; 7 ; ; ; ; ; ; ; ; ; ; ; ; ; ; 4 4 f                             ",
"                          g $ $ $ $ $ $ ; ; ; ; ; ; ; ; ; ; ; ; ; ; ; ; ; ; ; ; ; ; ; ; ; ; h 4 4 4                             ",
"                          i $ $ $ $ $ $ ; ; ; ; ; ; ; ; ; ; ; ; ; ; ; ; ; ; ; ; ; ; ; ; ; j 4 4 4 4 .                           ",
"                          k $ $ $ $ $ l ; ; ; ; ; ; ; ; ; ; ; ; ; ; ; ; ; ; ; ; ; ; ; ; ; 4 4 4 4 4 .                           ",
"                          m $ $ $ $ $ n ; ; ; ; ; ; ; ; ; ; ; ; ; ; ; ; ; ; ; ; ; ; ; ; 4 4 4 4 4 4 .                           ",
"                          o $ $ $ $ $ ; ; ; ; ; ; ; ; ; ; ; ; ; ; ; ; ; ; ; ; ; ; ; ; p 4 4 4 4 4 4 .                           ",
"                          q $ $ $ $ $ ; ; ; ; ; ; ; ; ; ; ; ; ; ; ; ; ; ; ; ; ; ; r 7 s 4 4 4 4 4 4 .                           ",
"                          t $ $ $ $ $ ; ; ; ; ; ; ; ; ; ; ; ; ; ; ; ; ; ; u v 4 4 4 4 4 4 4 4 4 4 4                             ",
"                          . $ $ $ $ [ ; ; ; ; ; ; ; ; ; ; ; ; ; ; w x 4 4 4 4 4 4 4 4 4 4 4 4 4 4 y                             ",
"                            $ $ $ $ z ; ; ; ; ; ; ; ; ; ; 7 A 4 4 4 4 4 4 4 4 4 4 4 4 4 4 4 4 4 4 B                             ",
"                            C $ $ $ ; ; ; ; ; ; ; ; ; ; ; D 4 4 4 4 4 4 4 4 4 4 4 4 4 4 4 4 4 4 4 .                             ",
"                            . $ $ $ ; ; ; ; ; ; ; ; ; ; ; 4 4 4 4 4 4 4 4 4 4 4 4 4 4 4 4 4 4 4 E                               ",
"                              $ $ $ ; ; ; ; ; ; ; ; ; ; ; 4 4 4 4 4 4 4 4 4 4 4 4 4 4 4 4 4 4 4 .                               ",
"                              F $ G ; ; ; ; ; ; ; ; ; ; H 4 4 4 4 4 4 4 4 4 4 4 4 4 4 4 4 4 4 I                                 ",
"                                J K ; ; ; ; ; ; ; ; ; ; L 4 4 4 4 4 4 4 4 4 4 4 4 4 4 4 M N N .                                 ",
"                                . ; ; ; ; ; ; ; ; ; ; ; 4 4 4 4 4 4 4 4 4 4 4 4 4 O 7 N N N P                                   ",
"                                  Q ; ; ; ; ; ; ; ; ; ; 4 4 4 4 4 4 4 4 4 4 4 4 4 4 N N N N .                                   ",
"                                  . ; ; ; ; ; ; ; ; ; ; 4 4 4 4 4 4 4 4 4 4 4 4 4 R N N N S                                     ",
"                                    T ; ; ; ; ; ; ; ; U 4 4 4 4 4 4 4 4 4 4 4 4 4 V N N N .                                     ",
"                                    W ; ; ; ; ; ; ; ; X 4 4 4 4 4 4 4 4 4 4 4 4 4 N N N Y                                       ",
"                                      ; ; ; ; ; ; ; ; 4 4 4 4 4 4 4 4 4 4 4 4 4 4 N N N Z                                       ",
"                                      ` ; ; ; ; ; ; ; 4 4 4 4 4 4 4 4 4 4 4 4 4  .N N N                                         ",
"                                      . ; ; ; ; ; ; ..4 4 4 4 4 4 4 4 4 4 4 4 4 +.N N @.                                        ",
"                                        ; ; ; ; ; ; 7 4 4 4 4 4 4 4 4 4 4 4 4 N #.N N $.                                        ",
"                                        %.; ; ; ; &.f 4 4 4 4 4 4 4 4 4 4 *.N N N N N .                                         ",
"                                        =.; ; -.4 4 4 4 4 4 4 4 4 4 4 ;.N N N N N N N                                           ",
"                                        . ; >.4 4 4 4 4 4 4 4 4 ,.7 N N N N N N N N '.                                          ",
"                                          4 4 4 4 4 4 4 4 4 4 4 4 N N N N N N N N N ).                                          ",
"                                          !.4 4 4 4 4 4 4 4 4 4 ~.N N N N N N N N N .                                           ",
"                                          {.4 4 4 4 4 4 4 4 4 4 N N N N N N N N N N                                             ",
"                                          . 4 4 4 4 4 4 4 4 4 4 N N N N N N N N N Y                                             ",
"                                          . 4 4 4 4 4 4 4 4 4 ].N N N N N N N N N ^.                                            ",
"                                            4 4 4 4 4 4 4 4 4 N N N N N N N N N N /.                                            ",
"                                            4 4 4 4 4 4 4 4 (.N N N N N N N N N N .                                             ",
"                                            _.4 4 4 4 4 4 4 :.N N N N N N N N N N .                                             ",
"                                            <.4 4 4 4 4 4 4 N N N N N N N N N N N .                                             ",
"                                            [.}.4 4 4 4 4 |.N N N N N N N N N N 1.                                              ",
"                                            . 2.3.4.5.6.. 7.8.9.7.7.0.a.b.c.d.2.2.                                              ",
"                                            . 2.2.2.2.2.2.2.2.2.2.2.2.2.2.2.2.2.e.                                              ",
"                                          f.g.h.i.8.j.. . . . . . . . . k.8.l.m.g.g..                                           ",
"                                          . n.g.g.g.g.g.g.g.g.g.g.g.g.g.g.g.g.g.g.j.                                            ",
"                                          W 2.o.p.W q.. . . . . . . . . . . 8.r.2.F                                             ",
"                                          . s.2.2.2.2.2.2.2.2.2.2.2.2.2.2.2.2.2.2.t.                                            ",
"                                            . * . W u.v.2.2.2.2.2.2.2.s.w.x.. W y.                                              ",
"                                            . g.g.g.g.g.z.A.B.C.D.E.F.g.g.g.g.g.g..                                             ",
"                                                . G.g.g.g.g.g.g.g.g.g.g.g.H.0.. .                                               ",
"                                                      . g.g.g.g.g.g.g.I..                                                       ",
"                                                        . g.g.g.g.g.W                                                           ",
"                                                            . J.K..                                                             ",
"                                                                                                                                "};
