/* XPM */
static char * ___ = {
"32 32 55 1",
" 	c None",
".	c #F4EE95",
"+	c #FCF7C7",
"@	c #FBE308",
"#	c #2B2A29",
"$	c #F5EF99",
"%	c #2F2E2D",
"&	c #FCFAE4",
"*	c #DFDBD0",
"=	c #8A8987",
"-	c #FECE0B",
";	c #F8F6D0",
">	c #FCFADA",
",	c #F8F5CE",
"'	c #FDF1C0",
")	c #6F6E6D",
"!	c #FEF281",
"~	c #FEFEFE",
"{	c #C8C5B9",
"]	c #2D2C2B",
"^	c #FCFAE9",
"/	c #F8B31E",
"(	c #FEEC9F",
"_	c #F7AA05",
":	c #FEECA8",
"<	c #F9BB37",
"[	c #FED428",
"}	c #F5F4EE",
"|	c #5F5E5E",
"1	c #FEEF6C",
"2	c #FAC044",
"3	c #E5E2D3",
"4	c #FBCD6A",
"5	c #FDF2D8",
"6	c #B2B3B3",
"7	c #929393",
"8	c #41403F",
"9	c #363534",
"0	c #353433",
"a	c #393837",
"b	c #838483",
"c	c #C3C4C4",
"d	c #BCBCBC",
"e	c #373635",
"f	c #9B9B9B",
"g	c #C5C6C6",
"h	c #31302F",
"i	c #9FA0A0",
"j	c #5C5B5A",
"k	c #2C2B2A",
"l	c #9D9E9D",
"m	c #A9AAAA",
"n	c #343332",
"o	c #363635",
"p	c #BBBCBC",
"            .....+@#            ",
"          $......@@@@           ",
"         ........@@@@@          ",
"        .........@@@@@@         ",
"       %........&@@@@@@@        ",
"       .........@@@@@@@@        ",
"       .........@@@@@@@@*       ",
"      =...@@@@@@@@@@@@@--       ",
"      ;..>@@@@@@@@@@@@---       ",
"      ,..@@@@@@@@@@@@'---       ",
"      )..@@@@@@@@@!------       ",
"       ..@@@@@~---------{       ",
"       ..@@@@@----------        ",
"       ]^@@@@@---------/        ",
"        @@@@@@------(__         ",
"        #@@@@@------:_<         ",
"         @@@@[------__          ",
"         }@@@-------__          ",
"          @@@------__|          ",
"          @1-----2___           ",
"          ------_____           ",
"          3-----_____           ",
"          #----4____5           ",
"           ----_____#           ",
"           ----_____#           ",
"           678909ab6            ",
"          cde#####efg           ",
"          hih######j]           ",
"           khl666mnh            ",
"            ogggggp#            ",
"              ggg               ",
"                                "};
