/* XPM */
static char * ___ = {
"16 16 19 1",
" 	c None",
".	c #F4EE95",
"+	c #FBE308",
"@	c #FECE0B",
"#	c #FDF1C0",
"$	c #2D2C2B",
"%	c #F8B31E",
"&	c #F7AA05",
"*	c #F5F4EE",
"=	c #FEEF6C",
"-	c #FAC044",
";	c #B2B3B3",
">	c #41403F",
",	c #353433",
"'	c #393837",
")	c #9FA0A0",
"!	c #2B2A29",
"~	c #5C5B5A",
"{	c #C5C6C6",
"     ...++      ",
"    ....+++     ",
"   .....++++    ",
"   ..++++++@    ",
"   .++++++#@    ",
"   .+++@@@@@    ",
"   $+++@@@@%    ",
"    +++@@@&     ",
"    *+@@@@&     ",
"     =@@-&      ",
"     @@@&&      ",
"     @@&&&      ",
"     ;>,';      ",
"     )!!!~      ",
"      {{{!      ",
"                "};
